HIERARCHY
ROOT Hips
{
	OFFSET 0.000000 0.000000 0.000000
	CHANNELS 6 Xposition Yposition Zposition Zrotation Yrotation Xrotation 
	JOINT LHipJoint
	{
		OFFSET 0.000000 0.000000 0.000000
		CHANNELS 3 Zrotation Yrotation Xrotation
		JOINT LeftUpLeg
		{
			OFFSET 1.363060 -1.794630 0.839290
			CHANNELS 3 Zrotation Yrotation Xrotation
			JOINT LeftLeg
			{
				OFFSET 2.448110 -6.726130 0.000000
				CHANNELS 3 Zrotation Yrotation Xrotation
				JOINT LeftFoot
				{
					OFFSET 2.562200 -7.039590 0.000000
					CHANNELS 3 Zrotation Yrotation Xrotation
					JOINT LeftToeBase
					{
						OFFSET 0.157640 -0.433110 2.322550
						CHANNELS 3 Zrotation Yrotation Xrotation
						End Site
						{
							OFFSET 0.000000 0.000000 0.000000
						}
					}
				}
			}
		}
	}
	JOINT RHipJoint
	{
		OFFSET 0.000000 0.000000 0.000000
		CHANNELS 3 Zrotation Yrotation Xrotation
		JOINT RightUpLeg
		{
			OFFSET -1.305520 -1.794630 0.839290
			CHANNELS 3 Zrotation Yrotation Xrotation
			JOINT RightLeg
			{
				OFFSET -2.542530 -6.985550 0.000000
				CHANNELS 3 Zrotation Yrotation Xrotation
				JOINT RightFoot
				{
					OFFSET -2.568260 -7.056230 0.000000
					CHANNELS 3 Zrotation Yrotation Xrotation
					JOINT RightToeBase
					{
						OFFSET -0.164730 -0.452590 2.363150
						CHANNELS 3 Zrotation Yrotation Xrotation
						End Site
						{
							OFFSET 0.000000 0.000000 0.000000
						}
					}
				}
			}
		}
	}
	JOINT LowerBack
	{
		OFFSET 0.000000 0.000000 0.000000
		CHANNELS 3 Zrotation Yrotation Xrotation
		JOINT Spine
		{
			OFFSET 0.028270 2.035590 -0.193380
			CHANNELS 3 Zrotation Yrotation Xrotation
			JOINT Spine1
			{
				OFFSET 0.056720 2.048850 -0.042750
				CHANNELS 3 Zrotation Yrotation Xrotation
				JOINT Neck
				{
					OFFSET 0.000000 0.000000 0.000000
					CHANNELS 3 Zrotation Yrotation Xrotation
					JOINT Neck1
					{
						OFFSET -0.054170 1.746240 0.172020
						CHANNELS 3 Zrotation Yrotation Xrotation
						JOINT Head
						{
							OFFSET 0.104070 1.761360 -0.123970
							CHANNELS 3 Zrotation Yrotation Xrotation
							End Site
							{
								OFFSET 0.000000 0.000000 0.000000
							}
						}
					}
				}
				JOINT LeftShoulder
				{
					OFFSET 0.000000 0.000000 0.000000
					CHANNELS 3 Zrotation Yrotation Xrotation
					JOINT LeftArm
					{
						OFFSET 3.362410 1.200890 -0.311210
						CHANNELS 3 Zrotation Yrotation Xrotation
						JOINT LeftForeArm
						{
							OFFSET 4.983000 -0.000000 -0.000000
							CHANNELS 3 Zrotation Yrotation Xrotation
							JOINT LeftHand
							{
								OFFSET 3.483560 -0.000000 -0.000000
								CHANNELS 3 Zrotation Yrotation Xrotation
								JOINT LeftFingerBase
								{
									OFFSET 0.000000 0.000000 0.000000
									CHANNELS 3 Zrotation Yrotation Xrotation
									JOINT LeftHandIndex1
									{
										OFFSET 0.715260 -0.000000 -0.000000
										CHANNELS 3 Zrotation Yrotation Xrotation
										End Site
										{
											OFFSET 0.000000 0.000000 0.000000
										}
									}
								}
								JOINT LThumb
								{
									OFFSET 0.000000 0.000000 0.000000
									CHANNELS 3 Zrotation Yrotation Xrotation
									End Site
									{
										OFFSET 0.000000 0.000000 0.000000
									}
								}
							}
						}
					}
				}
				JOINT RightShoulder
				{
					OFFSET 0.000000 0.000000 0.000000
					CHANNELS 3 Zrotation Yrotation Xrotation
					JOINT RightArm
					{
						OFFSET -3.136600 1.374050 -0.404650
						CHANNELS 3 Zrotation Yrotation Xrotation
						JOINT RightForeArm
						{
							OFFSET -5.241900 -0.000000 -0.000000
							CHANNELS 3 Zrotation Yrotation Xrotation
							JOINT RightHand
							{
								OFFSET -3.444170 -0.000000 -0.000000
								CHANNELS 3 Zrotation Yrotation Xrotation
								JOINT RightFingerBase
								{
									OFFSET 0.000000 0.000000 0.000000
									CHANNELS 3 Zrotation Yrotation Xrotation
									JOINT RightHandIndex1
									{
										OFFSET -0.622530 -0.000000 -0.000000
										CHANNELS 3 Zrotation Yrotation Xrotation
										End Site
										{
											OFFSET 0.000000 0.000000 0.000000
										}
									}
								}
								JOINT RThumb
								{
									OFFSET 0.000000 0.000000 0.000000
									CHANNELS 3 Zrotation Yrotation Xrotation
									End Site
									{
										OFFSET 0.000000 0.000000 0.000000
									}
								}
							}
						}
					}
				}
			}
		}
	}
}
MOTION
Frames: 7
Frame Time: 0.008333
10.629497 22.664241 2.291799 -175.384344 -2.110167 -161.755855 1.364516 3.343606 1.145049 -14.147311 -30.066171 -5.429108 -2.683165 7.827447 22.367806 -0.179913 9.134205 -26.186699 12.742000 18.687000 68.322300 -5.262355 -3.811618 0.840859 32.620922 11.971211 1.698941 4.150114 -2.846867 11.548871 8.792682 -36.149641 -23.865829 -10.251800 -17.549000 60.326600 5.841665 0.948039 10.179360 5.771438 1.950604 7.509932 -7.432620 0.350551 -17.926491 -10.764175 -2.848315 -21.730745 12.556384 -3.283892 5.987098 2.013200 -1.574900 3.334800 1.117487 -6.577075 2.309060 4.608007 -21.309502 -29.888261 28.393036 -34.299009 -5.543800 -0.585195 0.203557 11.530369 -7.751367 -41.799145 4.785300 -7.125000 0.000000 0.000000 -21.456300 -9.709000 26.532300 -1.759376 6.051079 2.244740 -13.366907 26.173063 -37.298388 -25.500945 32.580314 -5.943785 0.345090 -2.829028 7.604989 10.950946 -49.348148 -7.458600 7.125000 0.000000 0.000000 65.099800 -65.419100 -38.915000 
10.634694 22.756061 2.110123 -175.429934 -2.481644 -162.043420 1.283129 3.200691 1.044232 -13.323493 -31.547575 -6.356589 -2.652993 7.777298 21.991905 0.462173 7.725885 -26.753258 12.774600 18.699300 68.424000 -5.209316 -3.670864 0.896202 32.269245 12.055254 -0.147229 4.117026 -3.019688 11.475564 9.786067 -37.941453 -21.125755 -9.753400 -17.268800 58.660900 5.978929 0.800967 10.720821 5.798366 1.773401 8.838633 -7.360866 0.305233 -18.366674 -10.667475 -3.194076 -22.442521 12.298603 -3.643349 6.318536 1.946500 -1.734500 3.552000 1.224019 -6.514671 2.223899 3.219278 -23.579706 -29.629731 28.137966 -33.713788 -5.519219 -0.523853 0.229354 10.661485 -7.720523 -41.316678 4.761800 -7.125000 0.000000 0.000000 -21.464600 -9.288700 26.415700 -1.911952 6.048838 2.226634 -11.819397 27.348389 -34.796951 -25.352518 32.014425 -5.851039 -0.097208 -2.736540 6.511952 0.304430 -55.433302 -0.041200 7.125000 0.000000 0.000000 71.868000 -71.232200 -52.190000 
10.640931 22.842221 1.927984 -175.646490 -2.702372 -162.239083 1.179588 3.008101 0.932913 -12.568951 -32.736173 -7.454999 -2.596001 7.742733 21.574067 1.240742 5.929326 -27.150907 12.801700 18.709400 68.508400 -5.154600 -3.507679 0.941374 31.615619 12.149399 -2.193261 4.079715 -3.221314 11.497973 10.290046 -38.833792 -19.036615 -9.408400 -17.063500 57.492100 5.982240 0.688610 11.330847 5.547801 1.636751 9.977457 -7.219010 0.308405 -18.784398 -11.048547 -3.173618 -22.414488 12.943924 -3.663756 5.758959 2.233400 -1.767000 3.411900 1.332069 -6.565156 2.113148 2.107637 -26.213419 -29.754357 27.690074 -32.957707 -5.417730 -0.468214 0.232321 10.586395 -7.849920 -41.280829 4.882300 -7.125000 0.000000 0.000000 -21.550500 -9.255400 26.527000 -1.944806 5.946709 2.163717 -10.548286 29.411251 -34.030720 -24.513792 30.793839 -5.517210 0.037950 -2.605738 6.868310 3.398392 -54.169069 -2.361400 7.125000 0.000000 0.000000 70.695300 -69.845000 -49.424300 
10.645204 22.922376 1.752083 -175.896667 -2.896384 -162.347547 1.153933 2.740557 0.777232 -11.808753 -33.806164 -8.730463 -2.649096 7.671702 21.103444 1.379688 5.787993 -27.779640 12.782200 18.702100 68.447800 -5.054894 -3.299989 0.965379 30.809233 12.637347 -4.254605 4.074887 -3.398923 11.473847 10.441021 -39.093376 -17.983545 -9.213100 -16.942900 56.824200 5.669489 0.604838 12.231170 5.730375 1.498292 10.645530 -6.968533 0.310005 -19.318974 -10.619031 -3.205813 -22.431034 12.490788 -3.744443 5.433410 2.060200 -1.840900 3.283100 1.326283 -6.558227 2.013081 0.834626 -28.879164 -29.492851 27.248824 -32.294230 -5.337214 -0.411035 0.234869 10.787527 -7.757846 -41.775443 4.905300 -7.125000 0.000000 0.000000 -21.537700 -9.727700 26.653600 -2.017244 6.023740 2.145279 -9.147772 31.643331 -32.838043 -23.925618 29.922461 -5.318760 0.065824 -2.423957 8.115535 4.596624 -53.187518 -3.223500 7.125000 0.000000 0.000000 69.501900 -69.172100 -47.515300 
10.652481 22.993522 1.582996 -176.066471 -3.111114 -162.355780 1.156774 2.413914 0.610596 -10.800574 -35.035286 -10.152391 -2.789627 7.572061 20.568461 1.150373 6.803551 -29.032147 12.725400 18.680800 68.270400 -4.967842 -3.049151 0.967690 30.024840 13.377438 -6.334726 4.105820 -3.530766 11.320616 10.487711 -39.202006 -17.597260 -9.088100 -16.864100 56.394200 5.464912 0.547867 13.212056 5.925771 1.414589 11.137163 -6.778137 0.314820 -19.873283 -9.940631 -3.123347 -22.423794 11.622931 -3.669133 5.160319 1.735200 -1.846000 3.135900 1.294262 -6.588617 1.889465 -0.354499 -31.585026 -28.927152 26.920547 -31.827304 -5.327322 -0.362080 0.255365 11.210230 -7.333407 -42.133922 4.681900 -7.125000 0.000000 0.000000 -21.365100 -10.099600 26.520200 -2.106778 6.195228 2.174291 -7.082918 32.474680 -28.537296 -24.531024 30.598963 -5.715110 0.140780 -2.341176 6.664069 5.321385 -55.165525 -3.892000 7.125000 0.000000 0.000000 75.074200 -69.630500 -53.203000 
10.663684 23.053695 1.418183 -176.065185 -3.289135 -162.308695 1.181149 2.047470 0.478429 -9.445179 -35.995391 -11.842328 -2.909582 7.502603 20.005839 1.062619 7.451527 -30.249802 12.668800 18.659300 68.093600 -4.946196 -2.757558 0.952236 29.378310 14.424441 -8.347981 4.159237 -3.615524 11.004165 10.710733 -39.762514 -17.178283 -8.827600 -16.695500 55.492000 5.611170 0.476287 14.049940 5.876546 1.376096 11.809655 -6.788780 0.303227 -20.329127 -10.010529 -3.126020 -22.990237 11.902338 -3.630819 5.174962 1.857100 -1.817000 3.242400 1.277758 -6.715835 1.740420 -1.153209 -34.250160 -28.493700 26.654404 -31.516057 -5.365378 -0.321749 0.286365 11.947812 -6.675631 -42.288563 4.271200 -7.125000 0.000000 0.000000 -21.077300 -10.299200 26.170600 -2.110916 6.335545 2.145560 -5.357806 34.553552 -27.114898 -24.242678 30.125419 -5.642591 0.125082 -2.171633 7.702923 5.057623 -54.619948 -3.662200 7.125000 0.000000 0.000000 73.973900 -69.606400 -52.141200 
10.676851 23.101395 1.263995 -176.058466 -3.496129 -162.258798 1.294761 1.609773 0.365522 -8.086013 -36.178208 -13.910578 -3.054281 7.465713 19.448283 0.666203 8.499323 -30.741291 12.632700 18.645500 67.980800 -4.925718 -2.420049 0.958176 28.534829 16.037192 -10.217658 4.266771 -3.619256 10.549313 10.645781 -39.757886 -18.553902 -8.889100 -16.735800 55.705900 5.670893 0.398574 14.880506 5.990735 1.286345 12.627012 -6.788170 0.282581 -20.780757 -10.536634 -3.066900 -23.967935 12.773863 -3.432641 5.501201 2.245200 -1.667400 3.541700 1.266933 -6.877452 1.589587 -1.895667 -36.621731 -27.772677 26.550459 -31.411991 -5.473779 -0.283543 0.325334 12.228105 -5.713153 -42.458848 3.650200 -7.125000 0.000000 0.000000 -20.648000 -10.542600 25.634700 -2.115048 6.498096 2.093026 -3.967487 36.541017 -25.186179 -24.023073 29.775565 -5.602691 0.118352 -2.007472 7.426228 3.326411 -53.776400 -2.296900 7.125000 0.000000 0.000000 71.188200 -69.951400 -50.003600 
